<?xml version="1.0" encoding="utf-8"?><svg xmlns="http://www.w3.org/2000/svg" xmlns:xlink="http://www.w3.org/1999/xlink" viewBox="0 0 50 50"><style><![CDATA[.G{fill:#f1f1f2}.H{font-family:BaiJamjuree-Regular,Bai Jamjuree}]]></style><defs><linearGradient id="A" y1="25" x2="50" y2="25" gradientUnits="userSpaceOnUse"><stop offset="0" stop-color="#bd2226"/><stop offset=".03" stop-color="#c43622"/><stop offset=".25" stop-color="#fedc00"/><stop offset=".5" stop-color="#4db84c"/><stop offset=".75" stop-color="#0898a0"/><stop offset="1" stop-color="#6e4d9f"/></linearGradient><linearGradient id="B" x1="11.23" y1="21.06" x2="38.77" y2="-6.48" xlink:href="#A"/></defs><path d="M0 44.83L33.83 50 50 39.42V4.75L16.63 0 0 9.83v35z" fill="url(#A)"/><path d="M0 9.83l33.96 4.84L50 4.75 16.63 0 0 9.83z" fill="url(#B)"/><path d="M4.08 15l25.63 3.54v26.63L4.08 41.13V15zm2.13-5.96l12.17-7.29 25.41 3.46-11.75 7.54L6.21 9.04zm41.71 1.42v25.67l-12.04 8.33V18.13l12.04-7.67z" opacity=".7" fill="#231f20"/><text transform="matrix(1 .1 -.1 1 9.31 37.65)" opacity=".89" font-size="23.6" class="G H">?</text><text transform="matrix(1.01 -.61 .02 1 37.7 35.43)" opacity=".89" font-size="15.45" class="G H">?</text><text transform="matrix(1.94 -1.24 .98 .18 23.82 11.06)" opacity=".89" font-size="9.48" class="G H">?</text></svg>