<?xml version="1.0" encoding="utf-8"?><svg xmlns="http://www.w3.org/2000/svg" xmlns:xlink="http://www.w3.org/1999/xlink" viewBox="0 0 50 50"><defs><linearGradient id="A" x1="4.69" y1="45.22" x2="45.82" y2="4.09" gradientUnits="userSpaceOnUse"><stop offset="0" stop-color="#487421"/><stop offset=".45" stop-color="#84cc16"/><stop offset="1" stop-color="#76af39"/></linearGradient><linearGradient id="B" x1="9.06" y1="15.94" x2="16.15" y2="15.94" gradientUnits="userSpaceOnUse"><stop offset="0" stop-color="#fff"/><stop offset=".96" stop-color="#84cc16"/></linearGradient><linearGradient id="C" x1="9.68" y1="40.83" x2="16.82" y2="40.83" xlink:href="#B"/><linearGradient id="D" x1="40.94" x2="33.86" xlink:href="#B"/><linearGradient id="E" x1="40.32" y1="40.83" x2="33.19" y2="40.83" xlink:href="#B"/><linearGradient id="F" x1="15.92" y1="28" x2="34.08" y2="28" xlink:href="#B"/></defs><path d="M44.8 7.68l-2-2.28h-.37V3.1h-.69V0h-7.12v3.06h-.68v2.28h-1.07L28.54 0H9.38L5.2 4v41.72l4.18 4.13 31.21.15 4.21-4.16zM8.33 5.33V4.11l2.31-2.25H27l2.78 3.47z" fill="url(#A)"/><g fill="none" stroke-miterlimit="10"><path d="M 9.42 12.75 L 15.79 19.13" stroke="url(#B)"/><path d="M 10.08 45.08 L 16.42 36.58" stroke="url(#C)"/><path d="M 40.58 12.75 L 34.21 19.12" stroke="url(#D)"/><path d="M 39.92 45.08 L 33.58 36.58" stroke="url(#E)"/><path d="M 16.420000076293945 19.420000076293945 L 33.59000015258789 19.420000076293945 L 33.59000015258789 36.59000015258789 L 16.420000076293945 36.59000015258789 Z" stroke="url(#F)"/></g></svg>