<?xml version="1.0" encoding="utf-8"?><svg xmlns="http://www.w3.org/2000/svg" viewBox="0 0 1900.77 295.65"><path d="M1856.32 107.34q-7.86 0-19.3 6.28a88.34 88.34 0 0 0-19.78 14.49l2.08-4.82 2.72-6.4a21.65 21.65 0 0 0 1.28-3.8 3.49 3.49 0 0 0-.71-2.52 3.53 3.53 0 0 0-3.2-1.37l-42.07 1q-8.56 0-9.34 4.42l-.51 3.36q-1.58 9-7.8 23.07-6.22 14.07-12.84 25.8l-5.69 10.2q-40.41 12.15-60.85 12.16a56.66 56.66 0 0 1-9.76-.79q-17.62-3.36-16.63-17.06a271.31 271.31 0 0 0 39.24-5.48q17.29-3.89 28.72-11.84 11.43-7.95 13.63-20.51 2.15-12.19-7.11-19.18-9.26-6.99-31.78-7a125.13 125.13 0 0 0-42.93 7.38q-20.39 7.38-34.18 21.3-13.79 13.92-17 31.86a36 36 0 0 0-.44 10.19q-5.17 2-15.45 5.06-10.58 3.13-14.74 3.14-6.54 0-5.09-8.22.72-4.16 12-21.75 11.28-17.59 13.21-28.45 1.86-10.6-5-15.82a23.46 23.46 0 0 0-14.64-4.69q-20 0-53.37 13a37.43 37.43 0 0 0 2.1-6.4 4.51 4.51 0 0 0-.56-3.36 3.56 3.56 0 0 0-3.21-1.37l-42.06 1q-8.58 0-9.35 4.42l-.5 3.36q-1.59 9-7.75 22.75-6.16 13.75-12.66 25.14-3.45 6-6.59 11.6l-.81.38a154.63 154.63 0 0 1-15 5.7q-11 3.77-14.84 3.76c-2.6 0-4.27-.41-5-1.24s-.89-2.72-.37-5.7 3.37-9.07 8.56-18.3l15.59-27.92c5.22-9.39 8.2-16.25 9-20.55a4.06 4.06 0 0 0-.61-3.05 3.56 3.56 0 0 0-3.21-1.37l-40.15-1.86q-8.58 0-9.35 4.42l-.58 3.8a11.56 11.56 0 0 1-.38 1.68q-9.4-9.9-29.46-9.9a85.08 85.08 0 0 0-25.14 3.71 79.36 79.36 0 0 0-37.17 24.49q-14 16-17.37 35a47.56 47.56 0 0 0-.71 7q-39 11.6-58.95 11.6a56.66 56.66 0 0 1-9.76-.79Q1185 185 1186 171.33a271.31 271.31 0 0 0 39.24-5.48Q1242.55 162 1254 154q11.45-8 13.63-20.51 2.15-12.19-7.11-19.18-9.26-6.99-31.78-7a125.13 125.13 0 0 0-42.93 7.38q-20.38 7.38-34.18 21.3-13.8 13.92-16.95 31.86a35.57 35.57 0 0 0-.43 10.23q-21.48 8.5-31.32 8.51-3.36 0-4.39-1.63c-.7-1.09-.85-2.73-.47-4.91q1.38-7.86 26.07-52.15 24.69-44.29 26.33-53.56a4.08 4.08 0 0 0-.62-3.05 3.55 3.55 0 0 0-3.2-1.37l-43.48 1q-8.58 0-9.35 4.42l-.5 3.35q-1.53 8.76-9.74 26.3-8.21 17.54-17.16 33.8l-13.92 25.91c-12.63 4.17-46.67 16.71-71.43 18-11.94.64-20.15-3.36-24.57-10.07a26.76 26.76 0 0 1-4-11 48.1 48.1 0 0 1 .63-14.94A75.9 75.9 0 0 1 960 127a114.56 114.56 0 0 1 12.78-20.47 150.74 150.74 0 0 1 15.65-17.18 80.48 80.48 0 0 1 16.46-12.2q8.21-4.47 14.08-4.46 5.87.01 8.82 1.41c2 .94 2.71 2.67 2.27 5.17s-2.81 7.1-7.1 13.79l-12.75 19.48c-4.2 6.3-6.41 10.14-6.65 11.49q-1 5.92 6.44 9.11a25.55 25.55 0 0 0 10 1.68 42 42 0 0 0 16.81-3.36 38.69 38.69 0 0 0 13.11-9 50.75 50.75 0 0 0 13.84-26.95q2.47-14.15-9-23.91-11.47-9.76-35.23-9.77-23.78 0-51.75 11.85A158.38 158.38 0 0 0 920 105.57a100.07 100.07 0 0 0-16.77 21.79 80.62 80.62 0 0 0-9.38 26.25 38.92 38.92 0 0 0 4.15 26.16q6.57 12 21.16 18.43 14.59 6.43 35.28 6.45a121 121 0 0 0 25.06-2.52 317.5 317.5 0 0 0 41.33-11.76c7.38-2.84 15.69-6.2 24.27-10.37-1.66 3.63-3.54 7.44-3.77 8.74q-1.59 9.1 5.41 12.51 7 3.41 19.64 3.4a121.92 121.92 0 0 0 24.61-2.47 149.71 149.71 0 0 0 21.71-6.1q9.73-3.63 16.64-6.72c2.69-1.21 5.06-2.35 7.1-3.44q8.92 18.74 51.55 18.73 31.47 0 58-8.75 11.54-3.79 18.21-6.58 4.5-1.87 8-3.59a20.66 20.66 0 0 0 7.22 11.23q9.71 7.69 25.7 7.69 23.34 0 39.54-13.79 2 13.78 23.65 13.79a141.52 141.52 0 0 0 26-2.43 133.54 133.54 0 0 0 22.58-6.05c5.6-2.1 10.38-4.07 14.39-5.92-2.62 4.82-4 7.7-4.17 8.61a3.33 3.33 0 0 0 .7 2.83 2.7 2.7 0 0 0 2 1.19l45.68-1a5.64 5.64 0 0 0 5.35-3.54q1.73-3.52 14.87-29.34 13.14-25.82 18.59-37.65a69 69 0 0 1 12.88-1.41q12.29 0 10.91 7.86-1.23 7-13.62 27-12.39 20-13.76 27.8-2.12 12 24.14 12a122.61 122.61 0 0 0 23.82-2.52 162.47 162.47 0 0 0 22.63-6q9.93-3.54 16.73-6.5a109.94 109.94 0 0 0 6.56-3.08q9.3 18.15 51.25 18.15 31.47 0 58-8.75 11.54-3.79 18.21-6.58l3-1.3-.42.77q-5.55 10.2-5.83 11.84a3.36 3.36 0 0 0 .69 2.83 3.88 3.88 0 0 0 3.15 1.19q2.17 0 17.08-1.37 14.91-1.37 27.73-1.37c2.41 0 4.31-1.38 5.68-4.15q1.26-2.65 12.79-25.59 11.53-22.94 17.07-34.78a46.85 46.85 0 0 1 8.61-.7 32.68 32.68 0 0 1 21.93 7.95 7.28 7.28 0 0 0 4.86 1.77 8.92 8.92 0 0 0 5-1.42q4.53-3.18 10.8-13.21 6.27-10.03 7.53-17.24 1.28-7.2-15.4-7.2zm-187.76 26.43a39.59 39.59 0 0 1 9.52-9.73q5.3-3.71 9.58-3.71 4.28 0 6.07 2a5.81 5.81 0 0 1 1.21 5.21q-2.18 12.38-12.64 21.13-10.46 8.75-26.58 13a82.57 82.57 0 0 1 12.84-27.9zm-467.9 0a39.44 39.44 0 0 1 9.53-9.73c3.52-2.47 6.72-3.71 9.57-3.71s4.88.65 6.07 2a5.81 5.81 0 0 1 1.21 5.21q-2.18 12.38-12.64 21.13-10.46 8.75-26.58 13a82.57 82.57 0 0 1 12.84-27.9zm172.43 4.06q-1.27 7.26-8.45 18.92-15.6 25.45-32.22 25.45-5.75 0-8.58-4-2.83-4-1.43-12 1.39-8 8.19-18a63.78 63.78 0 0 1 16.21-16.57q9.42-6.59 16.53-6.58 7.11.01 9.07 2.74 1.95 2.79.68 10.04zm-638.76 54.65q-9.36-8.11-7.43-21.84a33.69 33.69 0 0 1 1.5-6.24h27.87a10.11 10.11 0 0 0-.53 2.29q-.68 4.78 2.06 7.49c1.83 1.8 4.61 2.7 8.36 2.7h18.71a23.34 23.34 0 0 0 9.82-1.77 8.52 8.52 0 0 0 4.87-5.09l1.13-3.54a3.75 3.75 0 0 0-.82-3.85 8.12 8.12 0 0 0-4.75-2.39L761.06 154q-10.74-2.07-16.17-7.79a15.9 15.9 0 0 1-4.29-13.83 24.69 24.69 0 0 1 .94-3.75l2.21-6.86A36.16 36.16 0 0 1 760.5 101q12.6-7.5 30.69-7.49h16.22q16.85 0 25.65 7.59 8.8 7.59 7 20.28a31.59 31.59 0 0 1-1.44 5.82h-27.84a6.51 6.51 0 0 0 .47-1.87 6.42 6.42 0 0 0-1.76-5.93c-1.53-1.46-3.75-2.18-6.66-2.18H787a27.56 27.56 0 0 0-10.32 1.66c-2.72 1.11-4.42 2.64-5.11 4.57l-1.09 3.33a3.87 3.87 0 0 0 .51 3.75c.82 1.11 2.3 1.87 4.46 2.28l35.64 6.87q10.11 2.07 15.23 7.79a15.71 15.71 0 0 1 4.07 13.21 18.17 18.17 0 0 1-.65 3.12l-2.3 7.49a37.5 37.5 0 0 1-16.66 21.62q-12.42 7.7-30.5 7.7h-18.7q-17.89-.02-27.25-8.13zm-120.87-1.15q-9.83-9.24-7.69-24.43a48 48 0 0 1 1.68-7.49l7.78-24.33q6.28-19.55 20.73-30.57 14.45-11.02 34-11h18.51q18.91 0 28.67 9.05 9.76 9.05 7.58 24.44a73.47 73.47 0 0 1-2 8.11l-7.72 24.3q-6.29 19.54-20.49 30.36-14.2 10.82-34.41 10.82h-18.51q-18.3 0-28.13-9.26zm51.1-15.07a21.29 21.29 0 0 0 14-5.1 28.41 28.41 0 0 0 8.84-14l6.39-20.16c.58-2.21.94-3.74 1.06-4.57q.93-6.66-2.15-10.61-3.08-3.95-9.53-4h-17.68a20.93 20.93 0 0 0-13.92 5.09 28.77 28.77 0 0 0-8.73 14l-6.37 20.17a47.84 47.84 0 0 0-1.09 4.79c-.63 4.44.1 7.93 2.16 10.5s5.18 3.85 9.34 3.85zM594 101.39q7.41 7.9 5.51 21.42a57.1 57.1 0 0 1-1.73 7.9l-21.65 68.21h-28.3l21.65-68.21a22.53 22.53 0 0 0 .67-3.32q.61-4.36-1-6.87-1.61-2.51-5.38-2.52h-8.94a19.34 19.34 0 0 0-11.72 4.26 29.19 29.19 0 0 0-9 11.33l-20.61 65.3h-28.27l21.62-68a22.26 22.26 0 0 0 .68-3.33c.41-2.91.07-5.23-1-7s-2.86-2.6-5.35-2.6h-8.11q-6 0-12.41 5.4a39.35 39.35 0 0 0-10.3 14.15l-19.44 61.34h-28.28l32.88-103.7h26.21L478 107.21a48.71 48.71 0 0 1 12.43-10q6.76-3.74 11.75-3.74h11.23q8.11 0 13.38 4a18.92 18.92 0 0 1 7 10.81Q547 93.49 561 93.49h10.61q14.95 0 22.39 7.9zm-273.7 91.09q-9.37-8.11-7.44-21.84a35.37 35.37 0 0 1 1.5-6.24h27.87a10.68 10.68 0 0 0-.53 2.29q-.68 4.78 2.07 7.49c1.82 1.8 4.61 2.7 8.35 2.7h18.72a23.26 23.26 0 0 0 9.81-1.77 8.57 8.57 0 0 0 4.88-5.09l1.12-3.54a3.74 3.74 0 0 0-.81-3.85 8.15 8.15 0 0 0-4.76-2.39L347 154q-10.74-2.07-16.17-7.79a15.9 15.9 0 0 1-4.29-13.83 27.4 27.4 0 0 1 .94-3.75l2.21-6.86A36.16 36.16 0 0 1 346.46 101q12.6-7.5 30.69-7.49h16.22q16.85 0 25.66 7.59 8.81 7.59 7 20.28a31.59 31.59 0 0 1-1.44 5.82h-27.84a7.26 7.26 0 0 0 .47-1.87 6.45 6.45 0 0 0-1.77-5.93c-1.53-1.46-3.75-2.18-6.66-2.18H373a27.53 27.53 0 0 0-10.32 1.66c-2.73 1.11-4.43 2.64-5.12 4.57l-1.09 3.33a3.9 3.9 0 0 0 .51 3.75q1.23 1.67 4.47 2.28l35.63 6.87q10.11 2.07 15.23 7.79a15.68 15.68 0 0 1 4.07 13.21 18.36 18.36 0 0 1-.64 3.12l-2.3 7.49a37.59 37.59 0 0 1-16.66 21.62q-12.42 7.7-30.51 7.7h-18.73q-17.88-.02-27.24-8.13zm-120.87-1.15q-9.84-9.24-7.69-24.43a48 48 0 0 1 1.67-7.49l7.79-24.33q6.27-19.55 20.72-30.57 14.45-11.02 34-11h18.51q18.91 0 28.68 9.05 9.77 9.05 7.57 24.44a71.17 71.17 0 0 1-2 8.11l-7.79 24.33q-6.29 19.54-20.48 30.36-14.19 10.82-34.38 10.82h-18.48q-18.3-.03-28.12-9.29zm51.09-15.07a21.27 21.27 0 0 0 14-5.1 28.41 28.41 0 0 0 8.84-14l6.39-20.16c.59-2.21.94-3.74 1.06-4.57q.93-6.66-2.15-10.61-3.08-3.95-9.53-4h-17.68a20.93 20.93 0 0 0-13.92 5.09 28.84 28.84 0 0 0-8.73 14l-6.37 20.17a47.84 47.84 0 0 0-1.09 4.79c-.62 4.44.1 7.93 2.17 10.5s5.17 3.85 9.33 3.85zM61.5 188.73q-11.32-11.85-8.49-32a80.53 80.53 0 0 1 2.64-11.44l12-38.26q8.22-26 26.4-40.66 18.18-14.66 42.55-14.68h21.84q21.83 0 32.91 11.44 11.08 11.44 8.36 30.78a71.58 71.58 0 0 1-2.56 10.81h-28.28a42.66 42.66 0 0 0 1.58-6.86q1.35-9.57-3.06-15.18-4.41-5.61-13.77-5.62h-21.83A32.08 32.08 0 0 0 110 85.38q-9.5 8.33-14 22.87L84.74 144a72.94 72.94 0 0 0-2 8.11q-1.49 10.6 3 16.85 4.49 6.25 14.1 6.24h22.25A30.32 30.32 0 0 0 143 167q9.15-8.2 13.91-22.77h28.28q-8.53 26.63-26.42 41.49a62.88 62.88 0 0 1-41.39 14.87H95.09q-22.26 0-33.59-11.86zm1794.66 79.94a44.66 44.66 0 0 1 44.61-43.23 44.66 44.66 0 0 1-44.61-43.24 44.67 44.67 0 0 1-44.64 43.24 44.67 44.67 0 0 1 44.64 43.23zM1713 234.9a18 18 0 0 1-18 17.38 18 18 0 0 1 18 17.39 18 18 0 0 1 18-17.39 18 18 0 0 1-18-17.38zm71.72 60.75a26.83 26.83 0 0 1 26.8-26 26.83 26.83 0 0 1-26.8-26 26.84 26.84 0 0 1-26.83 26 26.85 26.85 0 0 1 26.83 26zM44.65 86.47a44.64 44.64 0 0 1 44.6-43.23A44.65 44.65 0 0 1 44.65 0 44.68 44.68 0 0 1 0 43.24a44.68 44.68 0 0 1 44.65 43.23z"/></svg>