<?xml version="1.0" encoding="utf-8"?><svg xmlns="http://www.w3.org/2000/svg" viewBox="0 0 1000 380"><path d="M914.45 196.74q-7.08.49-17.18 6.76a83.6 83.6 0 0 0-17.34 14.07l1.72-4.39 2.23-5.84a19.42 19.42 0 0 0 1-3.45 3 3 0 0 0-.72-2.18 3.14 3.14 0 0 0-2.93-1l-37.84 3.5q-7.73.52-8.28 4.49l-.34 3q-1.14 8.07-6.28 20.9-5.14 12.83-10.72 23.64l-4.8 9.38q-36 13.29-54.39 14.58a52.49 52.49 0 0 1-8.82-.1q-16-1.86-15.52-14a252.51 252.51 0 0 0 35.15-7.31q15.44-4.52 25.48-12.28 10.04-7.76 11.6-19 1.54-10.92-7-16.53-8.54-5.61-28.84-4.19a116.91 116.91 0 0 0-38.39 9.21 85.87 85.87 0 0 0-30.09 21q-12 13.19-14.23 29.26a31.25 31.25 0 0 0-.06 9.05c-3.07 1.4-7.64 3.21-13.75 5.44q-9.43 3.44-13.17 3.7-5.9.41-4.86-7 .52-3.72 10.14-20 9.62-16.28 11-26 1.34-9.49-5-13.69a20.93 20.93 0 0 0-13.34-3.23q-18 1.26-47.63 14.84a35.14 35.14 0 0 0 1.68-5.8 3.89 3.89 0 0 0-.61-2.94 3.14 3.14 0 0 0-2.94-1l-37.84 3.49q-7.72.54-8.27 4.5l-.35 3q-1.12 8.08-6.24 20.63-5.12 12.55-10.68 23.04-2.91 5.54-5.56 10.68c-.24.12-.47.25-.72.39q-3.54 2-13.29 6-9.75 4-13.24 4.25c-2.34.17-3.87-.09-4.58-.78s-.9-2.35-.52-5 2.74-8.24 7.11-16.73l13.14-25.73c4.34-8.63 6.85-14.89 7.39-18.75a3.42 3.42 0 0 0-.65-2.66 3.14 3.14 0 0 0-2.93-1l-36.21.87q-7.72.54-8.28 4.5l-.4 3.4a9.86 9.86 0 0 1-.29 1.51q-8.78-8.17-26.84-6.92a78.6 78.6 0 0 0-22.51 4.86 74.88 74.88 0 0 0-32.68 24q-12.12 15-14.51 32.06a41.05 41.05 0 0 0-.41 6.28q-34.72 12.71-52.7 14a51.51 51.51 0 0 1-8.82-.09q-16-1.87-15.52-14.06a252.58 252.58 0 0 0 35.15-7.3q15.45-4.53 25.48-12.28 10.03-7.75 11.61-19 1.53-10.94-7-16.53-8.53-5.59-28.87-4.26a116.9 116.9 0 0 0-38.41 9.21 85.87 85.87 0 0 0-30.09 21q-12 13.19-14.23 29.26a31.46 31.46 0 0 0-.06 9.08q-19 8.88-27.92 9.49c-2 .14-3.35-.25-4-1.17s-.85-2.36-.58-4.31q1-7.05 21.79-47.79 20.79-40.74 22-49a3.52 3.52 0 0 0-.65-2.67 3.15 3.15 0 0 0-2.93-1l-39.12 3.58q-7.73.54-8.27 4.5l-.35 3Q225.4 227 218.58 243q-6.82 16-14.36 31l-11.84 24.11c-11.68 5.53-41.76 18.7-62.79 20.6-10.75 1-18.25-1.71-22.45-7.38a22.47 22.47 0 0 1-4-9.44 41.78 41.78 0 0 1 .08-13.26 68.38 68.38 0 0 1 5.59-17.92 106.05 106.05 0 0 1 10.84-18.91 143.42 143.42 0 0 1 13.54-16.19 76.11 76.11 0 0 1 14.43-11.82q7.25-4.47 12.54-4.83 5.29-.36 8 .69c1.8.72 2.53 2.2 2.22 4.44s-2.3 6.46-6 12.65l-10.84 18c-3.57 5.8-5.45 9.37-5.62 10.59q-.75 5.3 6.09 7.65a23.08 23.08 0 0 0 9 .86 39.16 39.16 0 0 0 15-4 36.9 36.9 0 0 0 11.52-8.8 46.54 46.54 0 0 0 11.58-24.72q1.77-12.67-8.85-20.6-10.62-7.93-32-6.44-21.37 1.52-46.17 13.72a149.64 149.64 0 0 0-41.93 31.22 93.44 93.44 0 0 0-14.4 20.33 73 73 0 0 0-7.59 23.82 33.39 33.39 0 0 0 4.51 22.9q6.3 10.18 19.65 15 13.35 4.82 32 3.5a116.42 116.42 0 0 0 22.47-3.8 258.3 258.3 0 0 0 36.07-12.18 165.91 165.91 0 0 0 20.85-10.74 52.19 52.19 0 0 0-2.47 6.7q-1.15 8.16 5.27 10.73 6.42 2.57 17.8 1.79a113.48 113.48 0 0 0 22.07-3.73 139.24 139.24 0 0 0 19.35-6.76q8.66-3.81 14.77-7 3.58-1.85 6.28-3.48 8.66 16 47 13.35a172.08 172.08 0 0 0 51.95-11.38q10.26-4.08 16.18-7a188.58 188.58 0 0 0 7.14-3.68 17.41 17.41 0 0 0 6.87 9.49q9 6.19 23.38 5.2 21-1.47 35.16-14.68 2.25 12.07 21.74 10.72a131 131 0 0 0 23.35-3.78 124 124 0 0 0 20.13-6.77q7.45-3.3 12.76-6.13-3.29 6.65-3.47 7.88a2.89 2.89 0 0 0 .72 2.46 2.34 2.34 0 0 0 1.8.93l41.11-3.72a5.3 5.3 0 0 0 4.7-3.46q1.44-3.24 12.44-26.9 11-23.66 15.51-34.49a64.67 64.67 0 0 1 11.56-2q11.05-.77 10.07 6.28-.87 6.26-11.39 24.75-10.52 18.49-11.5 25.48-1.5 10.77 22.13 9.13a114.73 114.73 0 0 0 21.37-3.72 153.2 153.2 0 0 0 20.17-6.78q8.85-3.75 14.87-6.79c2.22-1.13 4.15-2.17 5.8-3.14q9 15.48 46.74 12.86A172.15 172.15 0 0 0 789.05 284q10.26-4.08 16.18-7l2.69-1.34a22.83 22.83 0 0 0-.35.7q-4.67 9.39-4.87 10.85a2.82 2.82 0 0 0 .72 2.46 3.4 3.4 0 0 0 2.87.86q2-.14 15.33-2.28 13.33-2.14 24.92-2.95 3.27-.22 5-4 1.05-2.43 10.7-23.45 9.65-21.02 14.21-31.85a43.56 43.56 0 0 1 7.73-1.16 28.91 28.91 0 0 1 20 5.67 6.41 6.41 0 0 0 4.44 1.26 8.48 8.48 0 0 0 4.43-1.56q4-3.1 9.3-12.37 5.3-9.27 6.22-15.73.93-6.41-14.12-5.37zm-168.21 35.14a37.12 37.12 0 0 1 8.26-9.2q4.65-3.62 8.51-3.89 3.86-.27 5.52 1.34a5 5 0 0 1 1.26 4.54q-1.56 11.1-10.69 19.49-9.13 8.39-23.52 13.16a75.22 75.22 0 0 1 10.66-25.44zm-421.3 29.27a37 37 0 0 1 8.27-9.2q4.64-3.62 8.5-3.89 3.86-.27 5.52 1.35a5 5 0 0 1 1.26 4.53q-1.56 11.1-10.69 19.49-9.13 8.39-23.52 13.16a75.42 75.42 0 0 1 10.66-25.44zM480.33 254q-.91 6.5-7 17.27-13.23 23.5-28.19 24.54-5.17.36-7.86-3-2.69-3.36-1.67-10.51 1-7.17 6.79-16.43a59.67 59.67 0 0 1 14.06-15.68q8.26-6.42 14.67-6.87 6.41-.45 8.25 1.86c1.24 1.52 1.56 4.45.95 8.82zm285.94-79.07q-8.55-7.41-6.79-19.93a31.11 31.11 0 0 1 1.38-5.7h25.43a9.43 9.43 0 0 0-.48 2.09q-.62 4.37 1.89 6.83c1.66 1.65 4.21 2.47 7.62 2.47h17.09a21.25 21.25 0 0 0 9-1.61 7.88 7.88 0 0 0 4.45-4.65l1-3.23a3.41 3.41 0 0 0-.74-3.51 7.32 7.32 0 0 0-4.34-2.19l-31.1-5.69q-9.79-1.89-14.75-7.12a14.46 14.46 0 0 1-3.93-12.62 23.19 23.19 0 0 1 .86-3.42l2-6.27a33 33 0 0 1 15.29-19q11.49-6.84 28-6.83H833q15.38 0 23.42 6.92 8.04 6.92 6.4 18.53a29.65 29.65 0 0 1-1.32 5.32h-25.44a6.34 6.34 0 0 0 .43-1.71 5.9 5.9 0 0 0-1.61-5.41 8.48 8.48 0 0 0-6.08-2h-14.43a25 25 0 0 0-9.42 1.52c-2.49 1-4 2.4-4.67 4.17l-1 3a3.52 3.52 0 0 0 .46 3.42 6.35 6.35 0 0 0 4.08 2.09l32.53 6.26q9.23 1.91 13.9 7.12a14.3 14.3 0 0 1 3.72 12 17.32 17.32 0 0 1-.59 2.85l-2.1 6.84a34.3 34.3 0 0 1-15.21 19.74q-11.34 7-27.85 7h-17.08q-16.32.12-24.87-7.28zm-110.34-1.04q-9-8.44-7-22.31a43.85 43.85 0 0 1 1.53-6.83l7.11-22.22q5.73-17.84 18.92-27.9 13.19-10.06 31-10.06h16.89q17.28 0 26.18 8.25 8.9 8.25 6.93 22.31a66.62 66.62 0 0 1-1.81 7.4l-7.1 22.22q-5.75 17.83-18.71 27.71-12.96 9.88-31.38 9.87h-16.88q-16.71 0-25.68-8.44zm46.64-13.77a19.48 19.48 0 0 0 12.81-4.65 26 26 0 0 0 8.06-12.81l5.82-18.42c.53-2 .86-3.42 1-4.17q.85-6.07-2-9.69-2.85-3.62-8.7-3.6h-16.13a19.07 19.07 0 0 0-12.71 4.65 26.14 26.14 0 0 0-8 12.81l-5.82 18.42a40.7 40.7 0 0 0-1 4.36q-.86 6.07 2 9.59 2.86 3.52 8.53 3.51zm-64.43-68.34q6.76 7.22 5 19.55a51.13 51.13 0 0 1-1.59 7.22l-19.76 62.27H596l19.76-62.27a21 21 0 0 0 .62-3c.37-2.66.07-4.75-.92-6.27a5.43 5.43 0 0 0-4.9-2.27h-8.16a17.68 17.68 0 0 0-10.7 3.89 26.5 26.5 0 0 0-8.19 10.34l-18.82 59.62h-25.82l19.73-62.08a19.72 19.72 0 0 0 .62-3 9.37 9.37 0 0 0-.91-6.36 5.3 5.3 0 0 0-4.89-2.37H546q-5.5 0-11.32 4.93a36 36 0 0 0-9.41 12.91l-17.74 56h-25.8l30-94.74h23.92l-3.45 11A44.45 44.45 0 0 1 543.56 88q6.18-3.42 10.73-3.41h10.26q7.4 0 12.21 3.6a17.26 17.26 0 0 1 6.4 9.87Q595.3 84.57 608 84.57h9.68q13.68 0 20.46 7.21zM388.3 174.93q-8.55-7.41-6.79-19.93a31.91 31.91 0 0 1 1.37-5.7h25.44a9.43 9.43 0 0 0-.48 2.09q-.61 4.37 1.89 6.83c1.66 1.65 4.21 2.47 7.62 2.47h17.09a21.25 21.25 0 0 0 9-1.61 7.88 7.88 0 0 0 4.45-4.65l1-3.23a3.41 3.41 0 0 0-.74-3.51 7.32 7.32 0 0 0-4.34-2.19l-31.1-5.69q-9.79-1.89-14.75-7.12a14.46 14.46 0 0 1-3.96-12.62 23.19 23.19 0 0 1 .86-3.42l2-6.27a33 33 0 0 1 15.29-19q11.49-6.84 28-6.83H455q15.38 0 23.42 6.92 8.04 6.92 6.43 18.53a29.65 29.65 0 0 1-1.32 5.32h-25.44a6.34 6.34 0 0 0 .43-1.71 5.9 5.9 0 0 0-1.61-5.41 8.48 8.48 0 0 0-6.08-2H436.4a25 25 0 0 0-9.42 1.52c-2.49 1-4 2.4-4.67 4.17l-1 3a3.52 3.52 0 0 0 .46 3.42 6.33 6.33 0 0 0 4.08 2.09l32.53 6.26q9.23 1.91 13.9 7.12a14.3 14.3 0 0 1 3.72 12 17.32 17.32 0 0 1-.59 2.85l-2.1 6.84a34.3 34.3 0 0 1-15.21 19.74q-11.34 7-27.85 7h-17.08q-16.32.12-24.87-7.28zM278 173.89q-9-8.44-7-22.31a43.85 43.85 0 0 1 1.53-6.83l7.11-22.22q5.73-17.84 18.92-27.9 13.19-10.06 31-10.06h16.9q17.28 0 26.18 8.25 8.9 8.25 6.92 22.31a63.66 63.66 0 0 1-1.8 7.4l-7.1 22.22q-5.75 17.83-18.71 27.71-12.96 9.88-31.38 9.87h-16.9q-16.73 0-25.67-8.44zm46.64-13.77a19.43 19.43 0 0 0 12.8-4.65 25.93 25.93 0 0 0 8.07-12.81l5.82-18.42c.53-2 .86-3.42 1-4.17q.86-6.07-2-9.69-2.86-3.62-8.7-3.6h-16.18a19.06 19.06 0 0 0-12.7 4.65 26.22 26.22 0 0 0-8 12.81L299 142.66a40.7 40.7 0 0 0-1 4.36q-.86 6.07 2 9.59c1.88 2.34 4.73 3.51 8.52 3.51zm-172.59 11.39q-10.35-10.81-7.76-29.23a74.24 74.24 0 0 1 2.42-10.44l11-34.93q7.5-23.73 24.1-37.12 16.6-13.39 38.81-13.38h19.93q19.94 0 30 10.44 10.06 10.44 7.67 28.15a65.1 65.1 0 0 1-2.34 9.87h-25.82a38.11 38.11 0 0 0 1.45-6.27q1.23-8.73-2.8-13.86-4.03-5.13-12.57-5.12h-19.93a29.25 29.25 0 0 0-19.86 7.59q-8.67 7.56-12.81 20.79l-10.28 32.7a63.66 63.66 0 0 0-1.8 7.4q-1.36 9.68 2.77 15.38 4.13 5.7 12.87 5.69h20.32a27.64 27.64 0 0 0 19-7.5q8.35-7.48 12.7-20.78h25.82q-7.79 24.3-24.12 37.87A57.39 57.39 0 0 1 203 182.33h-20.29q-20.32 0-30.66-10.82zM925 173a44.65 44.65 0 0 1 44.61-43.24A44.65 44.65 0 0 1 925 86.57a44.68 44.68 0 0 1-44.65 43.23A44.68 44.68 0 0 1 925 173zM75 206.27A44.65 44.65 0 0 1 119.63 163 44.65 44.65 0 0 1 75 119.8 44.68 44.68 0 0 1 30.37 163 44.68 44.68 0 0 1 75 206.27zm39.51-87.19a26.83 26.83 0 0 1 26.8-26 26.83 26.83 0 0 1-26.8-26 26.84 26.84 0 0 1-26.82 26 26.85 26.85 0 0 1 26.82 26zM62.6 74.71a18 18 0 0 1 17.94-17.38A18 18 0 0 1 62.6 39.94a18 18 0 0 1-18 17.39 18 18 0 0 1 18 17.38z"/></svg>