<?xml version="1.0" encoding="utf-8"?><svg xmlns="http://www.w3.org/2000/svg" viewBox="0 0 939.25 300.13"><path d="M884.08,156.81q-7.1.48-17.19,6.76a83.82,83.82,0,0,0-17.33,14.06c.24-.64.82-2.11,1.71-4.39s1.65-4.23,2.24-5.84a20.34,20.34,0,0,0,1-3.45,3,3,0,0,0-.72-2.18,3.13,3.13,0,0,0-2.93-1l-37.85,3.49q-7.71.54-8.27,4.5l-.34,3q-1.14,8.08-6.28,20.9T787.43,216.3c-1.66,3.23-3.25,6.34-4.79,9.38q-36,13.29-54.4,14.57a51.38,51.38,0,0,1-8.81-.09q-16-1.87-15.52-14.06a252.42,252.42,0,0,0,35.14-7.3q15.45-4.53,25.48-12.28t11.61-19q1.53-10.94-7-16.53t-28.85-4.19a116.78,116.78,0,0,0-38.4,9.21,86.14,86.14,0,0,0-30.1,21q-12,13.19-14.22,29.26a31.28,31.28,0,0,0-.07,9.05q-4.59,2.1-13.75,5.44-9.42,3.44-13.16,3.7-5.9.41-4.86-7,.52-3.72,10.13-20t11-26q1.33-9.49-5-13.68a20.85,20.85,0,0,0-13.34-3.23q-18,1.25-47.63,14.83a33,33,0,0,0,1.68-5.8,3.81,3.81,0,0,0-.61-2.94,3.14,3.14,0,0,0-2.93-1l-37.84,3.49q-7.73.54-8.28,4.5l-.34,3q-1.12,8.09-6.24,20.63t-10.64,23.09q-2.91,5.53-5.56,10.67c-.24.13-.48.25-.72.39q-3.56,2-13.29,6c-6.5,2.68-10.91,4.09-13.25,4.26s-3.86-.1-4.58-.78-.89-2.36-.51-5,2.74-8.24,7.11-16.72,8.75-17,13.14-25.7,6.85-14.89,7.39-18.74a3.49,3.49,0,0,0-.65-2.66,3.15,3.15,0,0,0-2.93-1l-36.22.87q-7.71.54-8.27,4.5l-.4,3.4a9.61,9.61,0,0,1-.29,1.51q-8.78-8.17-26.85-6.92a79.42,79.42,0,0,0-22.51,4.86,75.07,75.07,0,0,0-32.68,24q-12.1,15-14.5,32.06a41.26,41.26,0,0,0-.41,6.29q-34.72,12.69-52.7,13.95a51.5,51.5,0,0,1-8.82-.09q-16-1.87-15.52-14.06a252.42,252.42,0,0,0,35.14-7.3q15.45-4.53,25.49-12.28t11.6-19q1.55-10.93-7-16.53T319,196.07a116.6,116.6,0,0,0-38.41,9.22,85.74,85.74,0,0,0-30.09,21q-12,13.17-14.23,29.26a31.39,31.39,0,0,0-.06,9.07q-19.06,8.88-27.92,9.49c-2,.14-3.35-.25-4-1.17s-.85-2.36-.58-4.31q1-7,21.79-47.78t22-49.05a3.5,3.5,0,0,0-.65-2.66,3.14,3.14,0,0,0-2.94-1l-39.11,3.58q-7.73.53-8.28,4.49l-.34,3Q195,187,188.2,203.08t-14.35,31C169,243.71,162,258.18,162,258.18c-11.68,5.54-41.76,18.7-62.79,20.61-10.75,1-18.26-1.72-22.45-7.38a22.71,22.71,0,0,1-4-9.45,42.1,42.1,0,0,1,.09-13.26,68,68,0,0,1,5.59-17.92,105.71,105.71,0,0,1,10.84-18.9,141.62,141.62,0,0,1,13.54-16.2,76.84,76.84,0,0,1,14.42-11.82q7.25-4.47,12.54-4.83c3.53-.25,6.19,0,8,.7s2.53,2.19,2.22,4.43-2.3,6.46-6,12.65-7.27,12.2-10.85,18-5.45,9.37-5.62,10.59q-.73,5.31,6.1,7.65a23,23,0,0,0,9,.87,39.35,39.35,0,0,0,15-4,36.59,36.59,0,0,0,11.51-8.8,46.45,46.45,0,0,0,11.59-24.72q1.77-12.67-8.86-20.6t-32-6.44q-21.42,1.49-46.22,13.72a150.32,150.32,0,0,0-41.93,31.23,92.59,92.59,0,0,0-14.39,20.33,72.64,72.64,0,0,0-7.6,23.81,33.44,33.44,0,0,0,4.52,22.9q6.29,10.2,19.65,15t32,3.5a116.33,116.33,0,0,0,22.48-3.79,261.39,261.39,0,0,0,36.07-12.18,166.37,166.37,0,0,0,20.85-10.75,53.7,53.7,0,0,0-2.48,6.71q-1.14,8.15,5.28,10.73t17.79,1.78A112.7,112.7,0,0,0,198,288.62a139.24,139.24,0,0,0,19.35-6.76q8.64-3.81,14.77-7,3.57-1.86,6.28-3.49,8.64,16,47,13.35a171.85,171.85,0,0,0,51.95-11.37q10.26-4.1,16.18-7c2.66-1.29,5-2.52,7.14-3.68a17.36,17.36,0,0,0,6.86,9.49q9,6.19,23.39,5.2,21-1.46,35.16-14.68,2.24,12.07,21.74,10.73a132.6,132.6,0,0,0,23.34-3.78,125.77,125.77,0,0,0,20.14-6.77c5-2.2,9.21-4.25,12.76-6.14q-3.29,6.64-3.47,7.88a2.82,2.82,0,0,0,.72,2.46,2.36,2.36,0,0,0,1.8.94l41.11-3.72a5.31,5.31,0,0,0,4.7-3.47q1.44-3.23,12.44-26.9t15.51-34.48a63.89,63.89,0,0,1,11.56-2.06q11.06-.76,10.07,6.28-.87,6.26-11.39,24.75t-11.49,25.46q-1.5,10.77,22.13,9.13a114.78,114.78,0,0,0,21.36-3.72,152.93,152.93,0,0,0,20.18-6.77q8.83-3.75,14.86-6.8c2.23-1.13,4.16-2.17,5.8-3.14q9,15.48,46.74,12.86a171.71,171.71,0,0,0,51.95-11.37q10.27-4.09,16.19-7c.93-.45,1.82-.9,2.68-1.33l-.34.7q-4.68,9.38-4.88,10.84a2.89,2.89,0,0,0,.72,2.46,3.4,3.4,0,0,0,2.88.86q2-.14,15.33-2.28t24.92-2.95q3.27-.23,5-4Q822.2,239,831.84,218t14.24-31.85a44.29,44.29,0,0,1,7.73-1.17,29,29,0,0,1,20,5.67,6.39,6.39,0,0,0,4.43,1.26,8.37,8.37,0,0,0,4.44-1.56q4-3.1,9.3-12.37t6.22-15.72Q899.11,155.76,884.08,156.81ZM715.87,191.94a36.92,36.92,0,0,1,8.26-9.2q4.65-3.62,8.5-3.88c2.58-.18,4.42.26,5.53,1.34a5,5,0,0,1,1.25,4.54q-1.54,11.08-10.69,19.48t-23.51,13.16A75.3,75.3,0,0,1,715.87,191.94Zm-421.3,29.27a37.12,37.12,0,0,1,8.26-9.2q4.65-3.62,8.51-3.88t5.52,1.34a5,5,0,0,1,1.26,4.54q-1.56,11.09-10.69,19.48t-23.52,13.17A75.35,75.35,0,0,1,294.57,221.21ZM450,214q-.91,6.49-7,17.27-13.21,23.51-28.18,24.54-5.17.36-7.86-3t-1.68-10.51q1-7.17,6.8-16.43a59.66,59.66,0,0,1,14.06-15.68q8.26-6.42,14.67-6.86t8.25,1.86C450.25,206.76,450.56,209.7,450,214Z" fill="#0ea5e9"/><path d="M735.9 135q-8.55-7.4-6.79-19.93a31.91 31.91 0 0 1 1.37-5.7h25.44a9.43 9.43 0 0 0-.48 2.09c-.41 2.92.22 5.19 1.88 6.84s4.21 2.47 7.63 2.47H782a21.24 21.24 0 0 0 9-1.62 7.83 7.83 0 0 0 4.45-4.65l1-3.23a3.41 3.41 0 0 0-.74-3.51 7.43 7.43 0 0 0-4.35-2.18l-31.09-5.7q-9.77-1.88-14.74-7.13a14.51 14.51 0 0 1-3.92-12.62 26.11 26.11 0 0 1 .86-3.42l2-6.26a33 33 0 0 1 15.3-19q11.49-6.83 28-6.83h14.81q15.38 0 23.42 6.93 8.04 6.93 6.41 18.51a29.69 29.69 0 0 1-1.31 5.31h-25.41a6.34 6.34 0 0 0 .43-1.71 5.91 5.91 0 0 0-1.61-5.41 8.55 8.55 0 0 0-6.08-2H784a25.16 25.16 0 0 0-9.42 1.52c-2.49 1-4 2.41-4.67 4.18l-1 3a3.55 3.55 0 0 0 .47 3.42 6.33 6.33 0 0 0 4.07 2.09L806 86.77q9.22 1.91 13.9 7.12a14.31 14.31 0 0 1 3.7 12.11 15.82 15.82 0 0 1-.59 2.85l-2.1 6.83a34.24 34.24 0 0 1-15.2 19.74q-11.34 7-27.85 7h-17.09q-16.33-.02-24.87-7.42zm-110.34-1q-9-8.44-7-22.31a44.1 44.1 0 0 1 1.53-6.83l7.1-22.21q5.75-17.85 18.92-27.91 13.17-10.06 31-10.06H694q17.26 0 26.18 8.26 8.92 8.26 6.92 22.3a65.37 65.37 0 0 1-1.8 7.41l-7.11 22.21q-5.73 17.85-18.7 27.72-12.97 9.87-31.38 9.87h-16.9q-16.69-.05-25.65-8.45zm46.64-13.76a19.41 19.41 0 0 0 12.8-4.66 25.93 25.93 0 0 0 8.07-12.81l5.81-18.41 1-4.18q.85-6.07-2-9.68-2.85-3.61-8.7-3.61h-16.13a19.1 19.1 0 0 0-12.71 4.65 26.31 26.31 0 0 0-8 12.82l-5.81 18.41a44.25 44.25 0 0 0-1 4.37q-.85 6.07 2 9.58c1.88 2.35 4.73 3.52 8.52 3.52zm-64.43-68.4q6.76 7.21 5 19.56a52.66 52.66 0 0 1-1.58 7.21l-19.76 62.27h-25.79l19.76-62.27a21 21 0 0 0 .62-3q.56-4-.93-6.26-1.49-2.26-4.9-2.35H572a17.68 17.68 0 0 0-10.7 3.89 26.72 26.72 0 0 0-8.2 10.35l-18.82 59.61H508.5l19.73-62.05a21 21 0 0 0 .62-3 9.45 9.45 0 0 0-.91-6.36 5.3 5.3 0 0 0-4.89-2.44h-7.4q-5.5 0-11.33 4.94a36 36 0 0 0-9.41 12.91l-17.74 56h-25.82l30-94.73h23.92l-3.44 11a43.86 43.86 0 0 1 11.34-9.11q6.18-3.42 10.73-3.42h10.25q7.41 0 12.22 3.61a17.19 17.19 0 0 1 6.39 9.87q12.15-13.48 24.87-13.48h9.68q13.69.04 20.46 7.25zM357.93 135q-8.55-7.4-6.79-19.93a31.07 31.07 0 0 1 1.37-5.7H378a9.43 9.43 0 0 0-.48 2.09c-.41 2.92.22 5.19 1.88 6.84s4.21 2.47 7.63 2.47h17.09a21.27 21.27 0 0 0 9-1.62 7.83 7.83 0 0 0 4.45-4.65l1-3.23a3.41 3.41 0 0 0-.74-3.51 7.43 7.43 0 0 0-4.35-2.18l-31.09-5.7q-9.79-1.89-14.76-7.12a14.51 14.51 0 0 1-3.92-12.62 26.11 26.11 0 0 1 .86-3.42l2-6.26a33 33 0 0 1 15.3-19q11.49-6.83 28-6.83h14.81q15.38 0 23.42 6.93 8.04 6.93 6.41 18.51a29.69 29.69 0 0 1-1.31 5.31h-25.48a6.34 6.34 0 0 0 .43-1.71 5.89 5.89 0 0 0-1.62-5.41 8.5 8.5 0 0 0-6.07-2H406a25.16 25.16 0 0 0-9.42 1.52c-2.49 1-4 2.41-4.67 4.18l-1 3a3.55 3.55 0 0 0 .47 3.42 6.33 6.33 0 0 0 4.07 2.09l32.55 6.3q9.21 1.91 13.9 7.12a14.34 14.34 0 0 1 3.73 12.11 15.82 15.82 0 0 1-.59 2.85l-2.1 6.83a34.24 34.24 0 0 1-15.2 19.74q-11.34 7-27.86 7H382.8q-16.33-.02-24.87-7.42zm-110.34-1q-9-8.44-7-22.31a44.1 44.1 0 0 1 1.53-6.83l7.1-22.21q5.75-17.85 18.92-27.91 13.17-10.06 31-10.06h16.9q17.26 0 26.17 8.26 8.91 8.26 6.93 22.3a65.37 65.37 0 0 1-1.8 7.41l-7.11 22.21q-5.73 17.85-18.7 27.72-12.97 9.87-31.38 9.87h-16.9q-16.7-.05-25.66-8.45zm46.64-13.76a19.41 19.41 0 0 0 12.8-4.66 25.93 25.93 0 0 0 8.07-12.81l5.81-18.41 1-4.18q.86-6.07-2-9.68-2.86-3.61-8.7-3.61h-16.13a19.1 19.1 0 0 0-12.71 4.65 26.31 26.31 0 0 0-8 12.82l-5.81 18.41a44.25 44.25 0 0 0-1 4.37q-.85 6.07 2 9.58c1.88 2.35 4.73 3.52 8.52 3.52zm-172.55 11.34q-10.35-10.83-7.76-29.24a72.85 72.85 0 0 1 2.42-10.44l11-34.93q7.52-23.73 24.11-37.11 16.59-13.38 38.8-13.39h19.94q19.94 0 30 10.44 10.06 10.44 7.65 28.09a66.16 66.16 0 0 1-2.33 9.87h-25.82a39.3 39.3 0 0 0 1.45-6.26q1.23-8.73-2.8-13.86-4.03-5.13-12.57-5.13h-19.93A29.21 29.21 0 0 0 166 37.23q-8.67 7.59-12.81 20.88l-10.3 32.65a63.66 63.66 0 0 0-1.8 7.4q-1.36 9.69 2.77 15.38 4.13 5.69 12.87 5.7H177a27.69 27.69 0 0 0 19-7.5q8.36-7.5 12.7-20.79h25.81q-7.78 24.3-24.11 37.87a57.42 57.42 0 0 1-37.79 13.58h-20.27q-20.34 0-30.66-10.82z" fill="#84cc16"/><path d="M894.65 133.1a44.65 44.65 0 0 1 44.6-43.24 44.64 44.64 0 0 1-44.6-43.23A44.67 44.67 0 0 1 850 89.86a44.68 44.68 0 0 1 44.65 43.24zm-850 33.24a44.65 44.65 0 0 1 44.6-43.24 44.64 44.64 0 0 1-44.6-43.23A44.68 44.68 0 0 1 0 123.1a44.68 44.68 0 0 1 44.65 43.24zm39.49-87.2a26.83 26.83 0 0 1 26.8-26 26.83 26.83 0 0 1-26.8-26 26.85 26.85 0 0 1-26.83 26 26.84 26.84 0 0 1 26.83 26zM32.22 34.78a18 18 0 0 1 18-17.39A18 18 0 0 1 32.22 0a18 18 0 0 1-17.95 17.39 18 18 0 0 1 17.95 17.39z" fill="#083344"/></svg>