<?xml version="1.0" encoding="utf-8"?><svg xmlns="http://www.w3.org/2000/svg" viewBox="0 0 2000 380"><path d="M1905.94,164.52q-7.87,0-19.31,6.27a88.91,88.91,0,0,0-19.78,14.5c.3-.71,1-2.32,2.08-4.82s2-4.64,2.72-6.41a21.38,21.38,0,0,0,1.28-3.8,3.47,3.47,0,0,0-.7-2.52,3.58,3.58,0,0,0-3.21-1.37l-42.06,1q-8.58,0-9.35,4.42l-.5,3.36q-1.59,9-7.81,23.07T1796.47,224c-2,3.5-3.87,6.89-5.7,10.19q-40.41,12.17-60.85,12.17a56.71,56.71,0,0,1-9.76-.8q-17.61-3.36-16.62-17.06a269.78,269.78,0,0,0,39.23-5.48q17.3-3.89,28.72-11.84t13.63-20.5q2.14-12.19-7.11-19.18t-31.78-7a125.08,125.08,0,0,0-42.92,7.38q-20.4,7.36-34.19,21.3t-16.95,31.86a36,36,0,0,0-.43,10.19c-3.46,1.34-8.6,3-15.46,5.05q-10.58,3.15-14.73,3.14-6.54,0-5.1-8.22.73-4.16,12-21.74T1641.7,185q1.86-10.61-5-15.82a23.53,23.53,0,0,0-14.65-4.68q-20,0-53.36,13a38.1,38.1,0,0,0,2.09-6.41,4.46,4.46,0,0,0-.56-3.36,3.55,3.55,0,0,0-3.2-1.37l-42.07,1q-8.57,0-9.35,4.42l-.5,3.36q-1.57,9-7.75,22.76t-12.73,25.19q-3.43,6-6.59,11.59l-.81.39a157.67,157.67,0,0,1-15,5.69q-11,3.76-14.85,3.76t-5-1.24q-1.15-1.23-.37-5.7t8.56-18.29q7.77-13.83,15.59-27.93t9-20.55a4.06,4.06,0,0,0-.62-3,3.57,3.57,0,0,0-3.21-1.37l-40.15-1.85q-8.58,0-9.35,4.41l-.58,3.8a11.56,11.56,0,0,1-.38,1.68q-9.4-9.89-29.46-9.89a84.8,84.8,0,0,0-25.14,3.71,79.46,79.46,0,0,0-37.17,24.48q-14,16-17.36,35a46.45,46.45,0,0,0-.72,7q-39,11.58-59,11.6a56.51,56.51,0,0,1-9.75-.8q-17.62-3.36-16.63-17.06a269.78,269.78,0,0,0,39.23-5.48q17.3-3.89,28.72-11.84t13.63-20.5q2.15-12.19-7.1-19.18t-31.79-7a125.08,125.08,0,0,0-42.92,7.38q-20.39,7.36-34.19,21.3t-17,31.86a36.22,36.22,0,0,0-.43,10.22q-21.48,8.52-31.31,8.52-3.36,0-4.4-1.64c-.69-1.09-.85-2.72-.47-4.91q1.38-7.86,26.08-52.14t26.32-53.56a4.06,4.06,0,0,0-.61-3.05,3.58,3.58,0,0,0-3.21-1.37l-43.48,1q-8.57,0-9.35,4.42l-.5,3.36q-1.53,8.75-9.74,26.29T1116,196c-5.58,10.13-13.93,25.91-13.93,25.91-12.62,4.16-46.66,16.7-71.42,18-12,.63-20.15-3.36-24.57-10.08a26.66,26.66,0,0,1-4.05-11,47.85,47.85,0,0,1,.64-14.94,75.59,75.59,0,0,1,6.91-19.75,114.48,114.48,0,0,1,12.78-20.46A151.77,151.77,0,0,1,1038,146.53a81.18,81.18,0,0,1,16.45-12.2q8.22-4.46,14.09-4.46c3.92,0,6.85.47,8.81,1.41s2.71,2.67,2.27,5.17-2.8,7.11-7.1,13.79-8.54,13.19-12.74,19.49-6.42,10.13-6.66,11.49q-1,5.92,6.45,9.1a25.54,25.54,0,0,0,10,1.68,42,42,0,0,0,16.81-3.36,38.85,38.85,0,0,0,13.12-9,50.87,50.87,0,0,0,13.83-27q2.49-14.14-9-23.91T1069.12,119q-23.79,0-51.75,11.84a158.87,158.87,0,0,0-47.72,31.91,100.4,100.4,0,0,0-16.77,21.78,80.78,80.78,0,0,0-9.38,26.25A39,39,0,0,0,947.58,237q6.55,12,21.16,18.42t35.28,6.45a120.81,120.81,0,0,0,25-2.51,318.64,318.64,0,0,0,41.33-11.76c7.38-2.85,15.69-6.21,24.28-10.37-1.66,3.62-3.55,7.44-3.78,8.74q-1.59,9.09,5.41,12.5t19.64,3.4a121.21,121.21,0,0,0,24.61-2.47,148.45,148.45,0,0,0,21.71-6.1q9.74-3.62,16.64-6.71c2.7-1.21,5.06-2.36,7.11-3.44q8.93,18.72,51.55,18.72,31.46,0,58-8.75,11.54-3.8,18.21-6.58c3-1.25,5.68-2.44,8.06-3.59a20.54,20.54,0,0,0,7.22,11.24q9.69,7.68,25.69,7.68,23.34,0,39.54-13.78,2,13.79,23.66,13.78a142.35,142.35,0,0,0,26-2.42,133.88,133.88,0,0,0,22.59-6.06c5.59-2.09,10.37-4.06,14.38-5.91q-3.92,7.23-4.16,8.61a3.3,3.3,0,0,0,.69,2.82,2.68,2.68,0,0,0,2,1.2l45.69-1a5.65,5.65,0,0,0,5.35-3.53q1.72-3.54,14.87-29.34t18.58-37.65a68.38,68.38,0,0,1,12.89-1.42q12.27,0,10.9,7.87-1.23,7-13.62,27t-13.76,27.8q-2.11,12,24.14,12a123.27,123.27,0,0,0,23.82-2.51,161.66,161.66,0,0,0,22.63-6.06q9.94-3.52,16.74-6.49c2.51-1.1,4.69-2.12,6.55-3.08q9.3,18.13,51.26,18.14,31.46,0,58-8.75,11.54-3.8,18.21-6.58l3-1.29-.41.76q-5.55,10.22-5.84,11.84a3.32,3.32,0,0,0,.7,2.83,3.82,3.82,0,0,0,3.15,1.19q2.16,0,17.07-1.36t27.73-1.38q3.63,0,5.68-4.15,1.26-2.66,12.8-25.59t17.06-34.78a47,47,0,0,1,8.61-.7,32.7,32.7,0,0,1,21.94,7.95,7.24,7.24,0,0,0,4.86,1.77,9,9,0,0,0,5-1.41q4.55-3.18,10.81-13.22t7.53-17.23Q1922.64,164.52,1905.94,164.52Zm-187.77,26.42a39.57,39.57,0,0,1,9.53-9.72q5.29-3.72,9.58-3.71c2.85,0,4.88.65,6.06,1.94a5.84,5.84,0,0,1,1.21,5.22q-2.17,12.38-12.63,21.12t-26.59,13A82.57,82.57,0,0,1,1718.17,190.94Zm-467.9,0a39.74,39.74,0,0,1,9.53-9.72q5.29-3.72,9.58-3.71c2.85,0,4.88.65,6.06,1.94a5.84,5.84,0,0,1,1.21,5.22Q1274.47,197,1264,205.79t-26.59,13A82.57,82.57,0,0,1,1250.27,190.94ZM1422.7,195q-1.28,7.25-8.45,18.91-15.6,25.46-32.21,25.46-5.74,0-8.59-4t-1.43-12q1.41-8,8.19-18a63.47,63.47,0,0,1,16.21-16.57q9.42-6.59,16.54-6.59T1422,185Q1424,187.77,1422.7,195Z" fill="#0ea5e9"/><path d="M784 249.65q-9.37-8.11-7.44-21.83a35.37 35.37 0 0 1 1.5-6.24h27.87a10.57 10.57 0 0 0-.53 2.28c-.45 3.2.24 5.69 2.07 7.49s4.61 2.7 8.35 2.7h18.72a23.28 23.28 0 0 0 9.81-1.76 8.61 8.61 0 0 0 4.88-5.1l1.12-3.53a3.74 3.74 0 0 0-.81-3.85 8 8 0 0 0-4.76-2.39l-34.06-6.24q-10.74-2.09-16.17-7.8a15.88 15.88 0 0 1-4.29-13.83 27.35 27.35 0 0 1 .94-3.74l2.21-6.86a36.12 36.12 0 0 1 16.76-20.8q12.58-7.49 30.68-7.49H857q16.85 0 25.66 7.59 8.81 7.59 7 20.28a31.59 31.59 0 0 1-1.44 5.82H860.4a7.14 7.14 0 0 0 .47-1.87 6.46 6.46 0 0 0-1.77-5.93q-2.29-2.18-6.66-2.18h-15.8a27.73 27.73 0 0 0-10.32 1.63c-2.73 1.12-4.43 2.64-5.12 4.58l-1.09 3.33a3.86 3.86 0 0 0 .52 3.74q1.22 1.66 4.46 2.29l35.63 6.86q10.11 2.08 15.23 7.8a15.65 15.65 0 0 1 4.07 13.2 18.36 18.36 0 0 1-.64 3.12l-2.3 7.49a37.61 37.61 0 0 1-16.66 21.63q-12.42 7.69-30.51 7.69h-18.72q-17.88.03-27.19-8.08zm-120.92-1.14q-9.83-9.25-7.69-24.44a47.84 47.84 0 0 1 1.67-7.48l7.79-24.33q6.27-19.55 20.72-30.57 14.45-11.02 34-11h18.51q18.93 0 28.68 9.05 9.75 9.05 7.58 24.44a71.68 71.68 0 0 1-2 8.11l-7.79 24.33q-6.29 19.54-20.48 30.36-14.19 10.82-34.38 10.81H691.2q-18.3-.03-28.12-9.28zm51.09-15.08a21.36 21.36 0 0 0 14-5.09 28.48 28.48 0 0 0 8.83-14l6.37-20.17 1.06-4.58q.93-6.65-2.15-10.6-3.08-3.95-9.53-4H715.1a20.88 20.88 0 0 0-13.92 5.1 28.84 28.84 0 0 0-8.73 14l-6.37 20.17a47.82 47.82 0 0 0-1.09 4.78q-.93 6.66 2.17 10.5 3.1 3.84 9.33 3.85zm-70.58-74.86q7.41 7.91 5.52 21.41a55.9 55.9 0 0 1-1.74 7.91l-21.65 68.21h-28.28l21.65-68.21a22.43 22.43 0 0 0 .67-3.33c.41-2.91.08-5.2-1-6.86s-2.87-2.5-5.36-2.5h-8.95a19.36 19.36 0 0 0-11.72 4.27 29.19 29.19 0 0 0-9 11.33l-20.61 65.3h-28.27l21.62-68a22.71 22.71 0 0 0 .67-3.33q.61-4.36-1-7-1.61-2.64-5.35-2.6h-8.11q-6 0-12.4 5.41A39.42 39.42 0 0 0 520 194.75l-19.47 61.35h-28.28l32.89-103.77h26.2l-3.78 12.06a48.45 48.45 0 0 1 12.43-10q6.76-3.75 11.75-3.75H563q8.12 0 13.38 4a18.86 18.86 0 0 1 7 10.82q13.3-14.76 27.24-14.77h10.6q14.95-.03 22.37 7.88zm-273.68 91.08q-9.36-8.11-7.43-21.83a33.69 33.69 0 0 1 1.5-6.24h27.86a10.57 10.57 0 0 0-.53 2.28c-.44 3.2.24 5.69 2.07 7.49s4.61 2.7 8.35 2.7h18.72a23.36 23.36 0 0 0 9.82-1.76 8.59 8.59 0 0 0 4.87-5.1l1.12-3.53a3.74 3.74 0 0 0-.81-3.85 8 8 0 0 0-4.76-2.39l-34.06-6.24q-10.72-2.09-16.16-7.8a15.85 15.85 0 0 1-4.3-13.83 27.35 27.35 0 0 1 .94-3.74l2.22-6.86a36.11 36.11 0 0 1 16.75-20.8q12.59-7.49 30.68-7.49H443q16.84 0 25.66 7.59 8.82 7.59 7 20.28a33.29 33.29 0 0 1-1.44 5.82h-27.86a7.14 7.14 0 0 0 .47-1.87 6.46 6.46 0 0 0-1.77-5.93c-1.53-1.45-3.74-2.18-6.65-2.18H422.6a27.73 27.73 0 0 0-10.32 1.63c-2.72 1.12-4.43 2.64-5.11 4.58l-1.1 3.33a3.86 3.86 0 0 0 .52 3.74q1.21 1.66 4.46 2.29l35.64 6.86q10.1 2.08 15.22 7.8a15.65 15.65 0 0 1 4.08 13.2 19.2 19.2 0 0 1-.65 3.12l-2.3 7.49a37.57 37.57 0 0 1-16.66 21.63q-12.42 7.69-30.51 7.69h-18.71q-17.89.03-27.25-8.08zM249 248.51q-9.82-9.25-7.69-24.44a49 49 0 0 1 1.67-7.48l7.79-24.33q6.29-19.55 20.72-30.57 14.43-11.02 34-11H324q18.93 0 28.68 9.05 9.75 9.05 7.59 24.44a74.79 74.79 0 0 1-2 8.11l-7.78 24.33q-6.29 19.54-20.49 30.36-14.2 10.82-34.38 10.81h-18.46q-18.3-.03-28.16-9.28zm51.09-15.08a21.36 21.36 0 0 0 14-5.09 28.48 28.48 0 0 0 8.83-14l6.37-20.17 1.06-4.58q.93-6.65-2.15-10.6-3.08-3.95-9.53-4h-17.6a20.88 20.88 0 0 0-13.92 5.1 28.78 28.78 0 0 0-8.74 14L272 214.3a47.82 47.82 0 0 0-1.09 4.78q-.93 6.66 2.17 10.5 3.1 3.84 9.34 3.85zm-188.97 12.48q-11.34-11.85-8.5-32a80.73 80.73 0 0 1 2.65-11.44l12-38.26q8.22-26 26.4-40.65 18.18-14.65 42.51-14.67h21.84q21.84 0 32.91 11.44 11.07 11.44 8.36 30.78a71.58 71.58 0 0 1-2.56 10.81h-28.25a41.45 41.45 0 0 0 1.59-6.86q1.34-9.56-3.07-15.18-4.41-5.62-13.76-5.61H181.4a32.07 32.07 0 0 0-21.76 8.31q-9.48 8.32-14 22.88l-11.29 35.74a71.17 71.17 0 0 0-2 8.11q-1.5 10.6 3 16.84 4.5 6.24 14.09 6.24h22.25a30.34 30.34 0 0 0 20.81-8.21q9.17-8.22 13.91-22.78h28.28q-8.52 26.63-26.42 41.49A62.81 62.81 0 0 1 167 257.76h-22.3q-22.26 0-33.58-11.85z" fill="#84cc16"/><path d="M1905.78 325.85a44.65 44.65 0 0 1 44.61-43.24 44.65 44.65 0 0 1-44.61-43.23 44.68 44.68 0 0 1-44.65 43.23 44.68 44.68 0 0 1 44.65 43.24zm-143.14-33.78a18 18 0 0 1-18 17.39 18 18 0 0 1 18 17.39 18 18 0 0 1 17.95-17.39 18 18 0 0 1-17.95-17.39zm71.69 60.76a26.83 26.83 0 0 1 26.8-26 26.83 26.83 0 0 1-26.8-26 26.85 26.85 0 0 1-26.83 26 26.84 26.84 0 0 1 26.83 26zM94.26 143.65a44.65 44.65 0 0 1 44.61-43.24 44.65 44.65 0 0 1-44.61-43.24 44.68 44.68 0 0 1-44.65 43.24 44.68 44.68 0 0 1 44.65 43.24z" fill="#083344"/></svg>