<?xml version="1.0" standalone="no"?>
<!DOCTYPE svg PUBLIC "-//W3C//DTD SVG 20010904//EN"
 "http://www.w3.org/TR/2001/REC-SVG-20010904/DTD/svg10.dtd">
<svg version="1.0" xmlns="http://www.w3.org/2000/svg"
 width="700.000000pt" height="700.000000pt" viewBox="0 0 700.000000 700.000000"
 preserveAspectRatio="xMidYMid meet">
<metadata>
Created by potrace 1.14, written by Peter Selinger 2001-2017
</metadata>
<g transform="translate(0.000000,700.000000) scale(0.100000,-0.100000)"
fill="#000000" stroke="none">
<path d="M3589 6419 c-5 -94 -74 -249 -153 -343 -95 -113 -285 -214 -408 -217
-22 0 -5 -7 51 -20 257 -58 442 -244 501 -503 14 -61 19 -72 19 -45 1 20 10
67 22 103 71 232 252 395 494 446 l60 13 -60 12 c-135 27 -228 78 -330 180
-103 103 -162 212 -180 336 -7 45 -14 64 -16 38z"/>
<path d="M5442 5423 c1 -22 -8 -71 -27 -144 -61 -237 -236 -461 -457 -583 -76
-42 -202 -90 -268 -102 -25 -4 -48 -9 -52 -10 -5 -1 -27 -2 -50 -3 -51 -1 -47
-7 12 -14 361 -45 675 -293 791 -623 27 -78 59 -225 52 -237 -3 -6 -2 -7 4 -4
6 4 13 33 16 65 18 172 134 394 281 536 130 125 327 228 482 250 22 4 60 10
85 14 l44 8 -73 7 c-97 10 -250 62 -356 123 -95 54 -226 171 -294 264 -82 112
-155 289 -169 411 -5 46 -23 80 -21 42z"/>
<path d="M1900 5123 c0 -105 -81 -342 -168 -489 -65 -112 -207 -260 -339 -355
-161 -116 -382 -208 -568 -234 -22 -3 -49 -8 -60 -10 -11 -2 -38 -4 -60 -5
-27 -2 -9 -7 55 -15 53 -8 133 -23 179 -35 484 -123 851 -493 945 -952 9 -42
16 -92 16 -109 0 -46 8 -32 15 26 24 182 100 373 213 535 41 59 183 208 240
253 161 126 405 237 575 262 23 4 44 8 47 10 3 2 40 7 81 11 83 7 102 14 43
15 -137 3 -343 58 -502 135 -136 66 -235 136 -348 249 -188 187 -298 396 -340
641 -18 111 -24 126 -24 67z"/>
<path d="M4029 3514 c0 -21 -2 -46 -4 -54 -1 -8 -6 -33 -9 -55 -11 -67 -54
-226 -80 -297 -142 -376 -423 -686 -791 -871 -112 -57 -285 -117 -384 -133
-14 -3 -50 -9 -80 -14 -30 -6 -77 -11 -105 -11 l-51 -1 55 -9 c283 -47 396
-80 575 -169 374 -186 658 -510 795 -905 40 -114 77 -293 79 -379 1 -45 12
-24 18 35 44 432 283 846 644 1111 227 167 486 267 794 304 l60 8 -75 7 c-529
53 -999 372 -1253 852 -74 140 -146 362 -162 502 -10 85 -13 107 -20 113 -3 3
-5 -12 -6 -34z"/>
</g>
</svg>
