<?xml version="1.0" encoding="utf-8"?><svg xmlns="http://www.w3.org/2000/svg" viewBox="0 0 18 16"><path d="M13.74 3.57a11.43 11.43 0 0 0-2.87-.87 6.65 6.65 0 0 0-.36.77 11.22 11.22 0 0 0-3.17 0C7.24 3.21 7.08 3 7 2.7a11.43 11.43 0 0 0-2.87.87 11.49 11.49 0 0 0-2 7.94h0A12.63 12.63 0 0 0 5.6 13.3a6.33 6.33 0 0 0 .77-1.23 8.55 8.55 0 0 1-1.18-.56c.1 0 .2-.16.31-.21a8.1 8.1 0 0 0 7.06 0 1.13 1.13 0 0 0 .31.21 8.55 8.55 0 0 1-1.18.56 8.29 8.29 0 0 0 .77 1.23A10.43 10.43 0 0 0 16 11.51h0a13.21 13.21 0 0 0-2.26-7.94zM6.57 9.92a1.36 1.36 0 0 1-1.28-1.38 1.32 1.32 0 0 1 1.28-1.38 1.32 1.32 0 0 1 1.28 1.38 1.43 1.43 0 0 1-1.28 1.38zm4.61 0A1.35 1.35 0 0 1 9.9 8.54a1.32 1.32 0 0 1 1.28-1.38 1.28 1.28 0 0 1 1.28 1.33 1.37 1.37 0 0 1-1.28 1.43z" fill="#fff"/></svg>