<?xml version="1.0" encoding="utf-8"?><svg xmlns="http://www.w3.org/2000/svg" viewBox="0 0 18 16"><path d="M2 2.17A1.17 1.17 0 0 1 3.17 1h11.66A1.16 1.16 0 0 1 16 2.17v11.66A1.16 1.16 0 0 1 14.83 15H3.17a1.17 1.17 0 0 1-.83-.34 1.19 1.19 0 0 1-.25-.38 1.17 1.17 0 0 1-.09-.45V2.17zm5.54 4.17h1.9v1a2.16 2.16 0 0 1 2-1c2 0 2.5 1.09 2.5 3.09v3.71h-2V9.8c0-1.14-.28-1.79-1-1.79-1 0-1.37.7-1.37 1.79V13h-2V6.34zM4 13h2V6.25H4V13zm2.34-8.9a1.25 1.25 0 0 1-.1.51A1.18 1.18 0 0 1 6 5a1.42 1.42 0 0 1-.43.29 1.26 1.26 0 0 1-.51.11 1.34 1.34 0 0 1-.51-.11A1.22 1.22 0 0 1 4.13 5a1.3 1.3 0 0 1-.29-.44 1.44 1.44 0 0 1-.09-.51A1.32 1.32 0 0 1 6 3.15a1.32 1.32 0 0 1 .4.91z" fill="#fff" fill-rule="evenodd"/></svg>