<?xml version="1.0" encoding="utf-8"?><svg xmlns="http://www.w3.org/2000/svg" viewBox="0 0 1000 1000"><path d="M576.74 925c3.9-122.67 104.43-220.94 228-220.94-123.52 0-224.05-98.27-228-220.94-3.91 122.67-104.52 220.94-228.15 220.94 123.63 0 224.24 98.27 228.15 220.94z" fill="#ffffff"/><path d="M272.5 593.81c3.22-93.67 86.07-168.71 187.86-168.71-101.79 0-184.64-75-187.86-168.7-3.22 93.67-86.13 168.7-188 168.7 101.87 0 184.78 75.04 188 168.71z" fill="#ffffff"/><path d="M778.55,479.44a137.11,137.11,0,0,1,137-132.76,137.1,137.1,0,0,1-137-132.75A137.16,137.16,0,0,1,641.47,346.68,137.17,137.17,0,0,1,778.55,479.44Z" fill="#ffffff"/><path d="M513.26 252.72a91.77 91.77 0 0 1 91.68-88.86A91.77 91.77 0 0 1 513.26 75a91.81 91.81 0 0 1-91.75 88.86 91.81 91.81 0 0 1 91.75 88.86z" fill="#ffffff"/></svg>