<?xml version="1.0" encoding="utf-8"?><svg xmlns="http://www.w3.org/2000/svg" viewBox="0 0 18 16"><path d="M16 8a7 7 0 1 1-7-7 7 7 0 0 1 7 7zm-2.52-.55a1 1 0 0 1 .19.55 1.08 1.08 0 0 1-.15.55 1 1 0 0 1-.42.38 1.61 1.61 0 0 1 0 .31c0 1.57-1.83 2.84-4.08 2.84s-4.08-1.27-4.08-2.84a1.61 1.61 0 0 1 0-.31 1.1 1.1 0 0 1-.35-.26 1.2 1.2 0 0 1-.2-.39 1.08 1.08 0 0 1 0-.44 1.15 1.15 0 0 1 .48-.71A1.25 1.25 0 0 1 5.25 7a1.09 1.09 0 0 1 .44 0 1 1 0 0 1 .38.22A4.9 4.9 0 0 1 8.8 6.4L9.31 4a.2.2 0 0 1 0-.08.17.17 0 0 1 .06-.06.19.19 0 0 1 .08 0h.08l1.72.34a.7.7 0 0 1 1.29.5.71.71 0 0 1-.72.56.7.7 0 0 1-.66-.63L9.7 4.26l-.46 2.18a5 5 0 0 1 2.7.86 1.1 1.1 0 0 1 .37-.23 1.3 1.3 0 0 1 .44-.07 1.05 1.05 0 0 1 .41.14.89.89 0 0 1 .32.29zm-6.69.86a.7.7 0 0 0 .71 1.08h0a.72.72 0 0 0 .5-.3.69.69 0 0 0-.19-1h0a.69.69 0 0 0-1 .19zM9 11.16a2.62 2.62 0 0 0 1.73-.51.19.19 0 0 0 0-.27.2.2 0 0 0-.14-.06.24.24 0 0 0-.14 0A2.25 2.25 0 0 1 9 10.8a2.33 2.33 0 0 1-1.46-.44.14.14 0 0 0-.12 0 .17.17 0 0 0-.18.18.17.17 0 0 0 0 .13 2.69 2.69 0 0 0 1.76.49zm1.21-1.85a.7.7 0 0 0 .38.15.69.69 0 0 0 .51-.22.65.65 0 0 0 .2-.51.69.69 0 0 0-.34-.6.71.71 0 0 0-.69 0 .7.7 0 0 0-.37.58.72.72 0 0 0 .32.6z" fill="#fff" fill-rule="evenodd"/></svg>