<?xml version="1.0" encoding="utf-8"?><svg xmlns="http://www.w3.org/2000/svg" viewBox="0 0 18 16"><path d="M12.34 7.63c-.05 0-.14 0-.19-.1a3 3 0 0 0-3-3.17h0A3 3 0 0 0 6.5 5.67l1 .7a1.75 1.75 0 0 1 1.54-.8 1.7 1.7 0 0 1 1.35.52 1.62 1.62 0 0 1 .42 1A6.86 6.86 0 0 0 9.12 7c-1.73.09-2.85 1.12-2.8 2.52a2.08 2.08 0 0 0 1 1.73 3.14 3.14 0 0 0 1.87.46 2.89 2.89 0 0 0 2.15-1 4.27 4.27 0 0 0 .74-1.92 2.5 2.5 0 0 1 .94 1 2.6 2.6 0 0 1-.61 2.8A4.41 4.41 0 0 1 9.1 13.8a4.5 4.5 0 0 1-3.74-1.58 6.86 6.86 0 0 1-1.16-4.2 6.86 6.86 0 0 1 1.16-4.2 4.59 4.59 0 0 1 3.76-1.56 4.7 4.7 0 0 1 3.82 1.59 4.89 4.89 0 0 1 .94 1.91L15 5.43a6.38 6.38 0 0 0-1.16-2.38A5.81 5.81 0 0 0 9.12 1h0A5.71 5.71 0 0 0 4.4 3.05 7.94 7.94 0 0 0 3 8h0a7.84 7.84 0 0 0 1.4 5 5.71 5.71 0 0 0 4.72 2h0a5.48 5.48 0 0 0 4.15-1.54 3.79 3.79 0 0 0 .89-4.2 4.2 4.2 0 0 0-1.82-1.63zm-3.18 3c-.74.05-1.54-.28-1.58-1C7.53 9 8 8.42 9.21 8.37h.42a5.34 5.34 0 0 1 1.26.14c-.09 1.73-.98 2.06-1.73 2.1z" fill="#fff"/></svg>