<?xml version="1.0" encoding="utf-8"?><svg xmlns="http://www.w3.org/2000/svg" width="18" height="12" fill="none"><path d="M17.624 1.875c-.102-.363-.303-.694-.583-.96s-.627-.457-1.008-.555C14.629 0 9 0 9 0S3.371 0 1.967.357A2.28 2.28 0 0 0 .958.912a2.12 2.12 0 0 0-.582.96C0 3.21 0 6 0 6s0 2.79.376 4.126c.207.738.818 1.318 1.591 1.515C3.371 12 9 12 9 12s5.629 0 7.033-.359c.775-.197 1.384-.778 1.591-1.515C18 8.79 18 6 18 6s0-2.79-.376-4.125zM7.212 8.561V3.439l4.661 2.541-4.661 2.58z" fill="#fff"/></svg>